<svg xmlns="http://www.w3.org/2000/svg" version="1.1" xmlns:xlink="http://www.w3.org/1999/xlink" width="512" height="512" x="0" y="0" viewBox="0 0 64 64" style="enable-background:new 0 0 512 512" xml:space="preserve" class=""><g><path d="M60.62 2.38H3.38c-.56 0-1 .44-1 1v57.24c0 .56.44 1 1 1h57.24c.56 0 1-.44 1-1V3.38c0-.56-.44-1-1-1zM21.84 59.62H4.38V42.16h17.46zm0-19.46H4.38V23.84h17.46zm0-18.32H4.38V4.38h17.46zm18.32 37.78H23.84V42.16h16.32zm0-19.46H23.84V23.84h16.32zm0-18.32H23.84V4.38h16.32zm19.46 37.78H42.16V42.16h17.46zm0-19.46H42.16V23.84h17.46zm0-18.32H42.16V4.38h17.46z" fill="#000000" opacity="1" data-original="#000000" class=""></path><g fill="#FDF499"><path d="M4.38 42.16h17.46v17.46H4.38zM23.84 42.16h16.32v17.46H23.84zM42.16 23.84h17.46v16.32H42.16zM23.84 4.38h16.32v17.46H23.84zM4.38 4.38h17.46v17.46H4.38z" fill="#FDF499" opacity="1" data-original="#fdf499" class=""></path></g><path fill="#FBB040" d="M42.16 4.38v17.46h17.46V4.38zm14.15 14.17a.976.976 0 0 1-.68.27c-.27 0-.53-.1-.729-.31l-3.86-4.1-3.66 4.28c-.2.24-.479.35-.76.35-.23 0-.46-.07-.65-.23-.42-.36-.47-1-.109-1.41l3.8-4.45-4.022-4.27a.988.988 0 0 1 .051-1.41.995.995 0 0 1 1.409.04l3.87 4.1 3.65-4.28c.36-.42.99-.47 1.41-.11.42.35.47.99.109 1.41l-3.8 4.45 4.021 4.26c.38.4.36 1.03-.05 1.41zM42.16 42.16h17.46v17.46H42.16zM23.84 23.84h16.32v16.32H23.84zM4.38 23.84h17.46v16.32H4.38z" opacity="1" data-original="#fbb040" class=""></path><path d="M32 26.62c-2.96 0-5.38 2.42-5.38 5.38s2.42 5.38 5.38 5.38 5.38-2.42 5.38-5.38-2.42-5.38-5.38-5.38zm0 8.76c-1.86 0-3.38-1.52-3.38-3.38s1.52-3.38 3.38-3.38 3.38 1.52 3.38 3.38-1.52 3.38-3.38 3.38zM51 46.12c-2.96 0-5.38 2.42-5.38 5.38s2.42 5.38 5.38 5.38 5.38-2.42 5.38-5.38-2.42-5.38-5.38-5.38zm0 8.76c-1.86 0-3.38-1.52-3.38-3.38s1.52-3.38 3.38-3.38 3.38 1.52 3.38 3.38-1.52 3.38-3.38 3.38zM56.31 18.55a.976.976 0 0 1-.68.27c-.27 0-.53-.1-.729-.31l-3.86-4.1-3.66 4.28c-.2.24-.479.35-.76.35-.23 0-.46-.07-.65-.23-.42-.36-.47-1-.109-1.41l3.8-4.45-4.022-4.27a.988.988 0 0 1 .051-1.41.995.995 0 0 1 1.409.04l3.87 4.1 3.65-4.28c.36-.42.99-.47 1.41-.11.42.35.47.99.109 1.41l-3.8 4.45 4.021 4.26c.38.4.36 1.03-.05 1.41zM17.81 37.43a.976.976 0 0 1-.68.27c-.27 0-.53-.11-.729-.32l-3.86-4.1-3.66 4.29c-.2.23-.479.35-.76.35a.998.998 0 0 1-.761-1.65l3.8-4.45-4.02-4.26a1 1 0 0 1 .051-1.42.996.996 0 0 1 1.409.05l3.86 4.1L16.12 26a.999.999 0 1 1 1.519 1.3l-3.8 4.45 4.021 4.26a1 1 0 0 1-.05 1.42z" fill="#000000" opacity="1" data-original="#000000" class=""></path></g></svg>